<mxfile host="app.diagrams.net" agent="Mozilla/5.0 (Macintosh; Intel Mac OS X 10_15_7) AppleWebKit/537.36 (KHTML, like Gecko) Chrome/129.0.0.0 Safari/537.36" version="24.7.16">
  <diagram name="第 1 页" id="iKTGLunjSuNLNsJfE3-s">
    <mxGraphModel dx="2550" dy="491" grid="1" gridSize="10" guides="1" tooltips="1" connect="1" arrows="1" fold="1" page="1" pageScale="1" pageWidth="827" pageHeight="1169" math="0" shadow="0">
      <root>
        <mxCell id="0" />
        <mxCell id="1" parent="0" />
        <mxCell id="08Pe-E-PLOBfHFOqVM3W-2" value="" style="rounded=0;whiteSpace=wrap;html=1;" vertex="1" parent="1">
          <mxGeometry x="80" y="400" width="590" height="480" as="geometry" />
        </mxCell>
        <mxCell id="08Pe-E-PLOBfHFOqVM3W-3" value="" style="rounded=0;whiteSpace=wrap;html=1;" vertex="1" parent="1">
          <mxGeometry x="80" y="400" width="590" height="40" as="geometry" />
        </mxCell>
        <mxCell id="08Pe-E-PLOBfHFOqVM3W-5" value="Sign-in / Login" style="text;html=1;align=center;verticalAlign=middle;resizable=0;points=[];autosize=1;strokeColor=none;fillColor=none;" vertex="1" parent="1">
          <mxGeometry x="560" y="405" width="100" height="30" as="geometry" />
        </mxCell>
        <mxCell id="08Pe-E-PLOBfHFOqVM3W-6" value="Home(图标)" style="text;html=1;align=center;verticalAlign=middle;resizable=0;points=[];autosize=1;strokeColor=none;fillColor=none;" vertex="1" parent="1">
          <mxGeometry x="85" y="405" width="90" height="30" as="geometry" />
        </mxCell>
        <mxCell id="08Pe-E-PLOBfHFOqVM3W-7" value="News" style="text;html=1;align=center;verticalAlign=middle;resizable=0;points=[];autosize=1;strokeColor=none;fillColor=none;" vertex="1" parent="1">
          <mxGeometry x="180" y="405" width="50" height="30" as="geometry" />
        </mxCell>
        <mxCell id="08Pe-E-PLOBfHFOqVM3W-8" value="Download" style="text;html=1;align=center;verticalAlign=middle;resizable=0;points=[];autosize=1;strokeColor=none;fillColor=none;" vertex="1" parent="1">
          <mxGeometry x="215" y="405" width="80" height="30" as="geometry" />
        </mxCell>
        <mxCell id="08Pe-E-PLOBfHFOqVM3W-9" value="Doc" style="text;html=1;align=center;verticalAlign=middle;resizable=0;points=[];autosize=1;strokeColor=none;fillColor=none;" vertex="1" parent="1">
          <mxGeometry x="300" y="405" width="40" height="30" as="geometry" />
        </mxCell>
        <mxCell id="08Pe-E-PLOBfHFOqVM3W-10" value="Community" style="text;html=1;align=center;verticalAlign=middle;resizable=0;points=[];autosize=1;strokeColor=none;fillColor=none;" vertex="1" parent="1">
          <mxGeometry x="340" y="405" width="80" height="30" as="geometry" />
        </mxCell>
        <mxCell id="08Pe-E-PLOBfHFOqVM3W-11" value="Welcome to AirLab" style="text;html=1;align=center;verticalAlign=middle;resizable=0;points=[];autosize=1;strokeColor=none;fillColor=none;" vertex="1" parent="1">
          <mxGeometry x="295" y="570" width="120" height="30" as="geometry" />
        </mxCell>
        <mxCell id="08Pe-E-PLOBfHFOqVM3W-12" value="&lt;div&gt;An Open Testbed for In-Phone Mobile Network Experimentation and Analytics at scale&lt;/div&gt;&lt;div&gt;&quot;MI-LAB spurs in-phone mobile network intelligence by providing a large scale, extensible infrastructure facility by the community and for the community. It allows to uncover problems in operational 4G/5G networks, expand them at scale and into depth, and test the design ideas through device-side data and analytics which are enabled in general or specific experiment context out of your interests and needs.&quot;&lt;/div&gt;" style="text;html=1;align=center;verticalAlign=middle;resizable=0;points=[];autosize=1;strokeColor=none;fillColor=none;" vertex="1" parent="1">
          <mxGeometry x="-1000" y="610" width="2200" height="40" as="geometry" />
        </mxCell>
      </root>
    </mxGraphModel>
  </diagram>
</mxfile>
